<?xml version="1.0" encoding="UTF-8"?>
<svg xmlns="http://www.w3.org/2000/svg" xmlns:xlink="http://www.w3.org/1999/xlink" viewBox="0 0 30 30" width="30px" height="30px">
<g id="surface108048211">
<path style=" stroke:none;fill-rule:nonzero;fill:rgb(100%,100%,100%);fill-opacity:1;" d="M 4.800781 1.804688 C 2.71875 1.804688 1.207031 3.054688 1.207031 4.769531 C 1.207031 6.492188 2.753906 7.792969 4.800781 7.792969 C 6.882812 7.792969 8.394531 6.523438 8.394531 4.734375 C 8.296875 3.011719 6.816406 1.804688 4.800781 1.804688 Z M 1.800781 9 C 1.46875 9 1.199219 9.269531 1.199219 9.601562 L 1.199219 27 C 1.199219 27.328125 1.46875 27.601562 1.800781 27.601562 L 7.800781 27.601562 C 8.128906 27.601562 8.398438 27.328125 8.398438 27 L 8.398438 9.601562 C 8.398438 9.269531 8.128906 9 7.800781 9 Z M 10.800781 9 C 10.46875 9 10.199219 9.269531 10.199219 9.601562 L 10.199219 27 C 10.199219 27.328125 10.46875 27.601562 10.800781 27.601562 L 16.199219 27.601562 C 16.53125 27.601562 16.800781 27.332031 16.800781 27 L 16.800781 17.699219 C 16.800781 16.277344 17.890625 15.121094 19.285156 15.011719 C 19.355469 15 19.429688 15 19.5 15 C 19.570312 15 19.644531 15 19.714844 15.011719 C 21.109375 15.121094 22.199219 16.277344 22.199219 17.699219 L 22.199219 27 C 22.199219 27.332031 22.46875 27.601562 22.800781 27.601562 L 28.199219 27.601562 C 28.53125 27.601562 28.800781 27.328125 28.800781 27 L 28.800781 16.800781 C 28.800781 12.917969 26.71875 9 22.074219 9 C 19.960938 9 18.367188 9.816406 17.398438 10.492188 L 17.398438 9.601562 C 17.398438 9.269531 17.128906 9 16.800781 9 Z M 10.800781 9 "/>
</g>
</svg>
