<?xml version="1.0" standalone="no"?>
<!DOCTYPE svg PUBLIC "-//W3C//DTD SVG 20010904//EN"
 "http://www.w3.org/TR/2001/REC-SVG-20010904/DTD/svg10.dtd">
<svg version="1.0" xmlns="http://www.w3.org/2000/svg"
 width="1280.000000pt" height="720.000000pt" viewBox="0 0 1280.000000 720.000000"
 preserveAspectRatio="xMidYMid meet">

<g transform="translate(0.000000,720.000000) scale(0.100000,-0.100000)"
fill="#000000" stroke="none">
<path d="M5790 6725 c0 -51 3 -65 15 -65 12 0 15 14 15 65 0 51 -3 65 -15 65
-12 0 -15 -14 -15 -65z"/>
<path d="M5920 6710 c0 -40 4 -70 10 -70 6 0 10 23 10 51 0 60 12 57 30 -6 17
-60 38 -56 61 10 l17 50 1 -52 c1 -40 5 -53 16 -53 12 0 15 14 15 70 0 66 -1
70 -23 70 -19 0 -25 -8 -36 -50 -7 -28 -16 -48 -21 -45 -4 2 -13 25 -20 50
-10 37 -17 45 -36 45 -23 0 -24 -3 -24 -70z"/>
<path d="M6122 6708 l3 -72 34 0 c19 0 37 6 39 12 2 7 -7 12 -22 12 -19 0 -26
5 -26 20 0 15 7 20 25 20 14 0 25 5 25 10 0 6 -11 10 -25 10 -18 0 -25 5 -25
20 0 15 7 20 25 20 14 0 25 5 25 10 0 6 -18 10 -40 10 l-41 0 3 -72z"/>
<path d="M6230 6710 l0 -70 43 0 c53 0 77 22 77 72 0 46 -25 68 -78 68 l-42 0
0 -70z m78 38 c7 -7 12 -24 12 -38 0 -30 -17 -50 -42 -50 -15 0 -18 9 -18 50
0 41 3 50 18 50 10 0 23 -5 30 -12z"/>
<path d="M6382 6708 c3 -70 19 -97 26 -44 2 17 10 26 25 28 29 4 28 22 0 26
-33 5 -31 42 2 42 14 0 25 5 25 10 0 6 -18 10 -40 10 l-41 0 3 -72z"/>
<path d="M6480 6775 c0 -3 9 -23 20 -45 11 -22 20 -51 20 -65 0 -16 6 -25 15
-25 9 0 15 9 15 25 0 14 9 43 20 65 24 46 24 50 7 50 -7 0 -20 -14 -28 -32
l-15 -31 -13 31 c-8 18 -20 32 -27 32 -8 0 -14 -2 -14 -5z"/>
<path d="M5840 6705 c0 -33 4 -45 15 -45 11 0 15 12 15 45 0 33 -4 45 -15 45
-11 0 -15 -12 -15 -45z"/>
<path d="M5740 6690 c0 -20 5 -30 15 -30 10 0 15 10 15 30 0 20 -5 30 -15 30
-10 0 -15 -10 -15 -30z"/>
<path d="M4690 6430 c0 -6 -14 -24 -30 -42 -22 -22 -27 -34 -18 -39 9 -6 7
-22 -7 -67 -20 -67 -16 -92 14 -92 20 0 25 10 37 73 7 44 9 45 69 56 47 9 47
9 61 -26 12 -26 20 -34 37 -31 30 4 36 52 9 69 -12 8 -17 20 -14 35 2 13 0 24
-6 24 -5 0 -13 11 -16 25 -9 37 -53 35 -58 -2 -2 -18 -10 -29 -22 -31 -16 -4
-18 0 -13 27 6 28 4 31 -18 31 -14 0 -25 -5 -25 -10z"/>
<path d="M4865 6421 c-7 -22 3 -70 18 -88 14 -19 107 -16 129 4 17 15 18 14
18 -35 0 -29 5 -52 10 -52 6 0 10 4 10 9 0 5 9 11 19 14 21 5 28 31 23 94 -4
44 -10 48 -89 66 -38 9 -21 -40 19 -56 21 -9 -12 -27 -48 -27 -43 0 -59 21
-46 60 11 30 10 30 -23 30 -24 0 -35 -5 -40 -19z"/>
<path d="M5174 6405 c-7 -19 -14 -39 -14 -45 0 -5 -4 -10 -9 -10 -10 0 -20
-55 -12 -69 6 -10 25 -14 52 -12 12 1 20 19 29 67 10 50 16 64 27 60 8 -3 27
-6 41 -6 23 0 30 -8 45 -45 19 -45 44 -65 28 -22 -9 24 -7 72 4 100 7 15 -1
17 -84 17 l-92 0 -15 -35z"/>
<path d="M5414 6394 c7 -56 12 -64 37 -64 21 0 23 12 13 73 -6 31 -10 37 -32
37 -24 0 -24 -2 -18 -46z"/>
<path d="M5502 6393 c2 -35 8 -49 19 -51 26 -5 49 26 49 64 0 32 -2 34 -36 34
l-35 0 3 -47z"/>
<path d="M5636 6408 c64 -71 72 -79 78 -69 3 5 3 16 0 25 -3 9 -1 16 5 16 6 0
11 14 11 30 l0 30 -62 0 -62 0 30 -32z"/>
<path d="M5803 6409 c-50 -35 -53 -49 -17 -66 24 -11 31 -9 68 19 46 35 76 64
76 73 0 3 -19 5 -42 5 -31 -1 -55 -9 -85 -31z"/>
<path d="M6002 6413 c4 -39 28 -42 28 -4 0 21 -5 31 -16 31 -11 0 -14 -8 -12
-27z"/>
<path d="M5710 6290 c20 -13 33 -13 25 0 -3 6 -14 10 -23 10 -15 0 -15 -2 -2
-10z"/>
<path d="M7224 6265 c-7 -18 13 -45 33 -45 19 0 28 27 13 45 -16 19 -39 19
-46 0z"/>
<path d="M6712 6150 c42 -23 138 -113 138 -131 0 -22 -92 -4 -143 27 -26 17
-44 33 -41 37 4 4 2 7 -4 7 -6 0 -14 -5 -17 -10 -4 -6 -10 -8 -15 -5 -11 7
-70 -15 -70 -26 0 -5 4 -9 10 -9 15 0 80 -47 73 -54 -11 -11 40 -56 58 -51 11
4 18 -1 22 -15 5 -19 33 -26 76 -20 13 1 31 -17 31 -32 0 -5 -7 -8 -15 -8 -19
0 -19 -13 1 -52 9 -18 17 -64 19 -116 3 -69 7 -89 22 -99 14 -11 15 -17 6 -31
-6 -9 -18 -16 -27 -16 -9 1 -16 -4 -16 -11 0 -14 17 -15 38 -2 17 11 15 -4 -4
-31 -8 -12 -20 -19 -26 -16 -6 4 -8 -1 -3 -15 3 -11 2 -21 -3 -21 -6 0 -15
-12 -21 -27 -6 -16 -16 -36 -23 -46 -11 -14 -10 -19 1 -26 8 -5 10 -14 6 -21
-6 -9 -4 -11 5 -5 8 5 11 3 8 -6 -3 -8 -11 -13 -18 -11 -7 1 -18 -3 -26 -9 -8
-7 -17 -9 -21 -5 -4 3 3 13 15 22 26 18 29 34 6 34 -14 0 -14 3 -4 15 15 18
-1 20 -18 3 -9 -9 -12 -9 -12 -1 0 7 5 15 10 18 6 4 8 10 5 15 -3 5 1 23 10
39 8 17 15 46 15 65 0 19 5 38 10 41 6 3 10 14 10 23 -1 15 -3 14 -16 -3 -15
-19 -16 -17 -11 29 3 27 10 52 17 56 9 6 9 13 1 28 -6 11 -11 48 -11 82 0 41
-5 66 -15 76 -13 14 -15 13 -15 -5 0 -12 5 -21 10 -21 6 0 10 -11 10 -25 0
-20 -5 -24 -22 -22 -15 1 -23 -3 -23 -13 0 -8 9 -15 20 -15 22 0 31 -30 20
-72 -4 -19 -9 -22 -19 -14 -7 6 -16 7 -21 3 -4 -4 -6 3 -3 15 5 20 4 20 -26 8
-39 -17 -41 -41 -3 -38 18 1 27 -3 27 -13 0 -8 3 -14 8 -14 4 0 13 -4 20 -9
10 -6 8 -19 -13 -62 -40 -83 -69 -132 -83 -137 -7 -2 -12 -10 -12 -18 0 -14
-36 -14 -60 1 -6 4 -16 2 -23 -3 -7 -6 -28 -15 -47 -20 l-35 -10 37 -1 c32 -1
36 -3 30 -23 -6 -27 -32 -49 -49 -43 -6 2 -24 -14 -39 -36 -32 -47 -43 -54
-104 -65 l-45 -8 45 -6 c34 -4 44 -9 41 -20 -43 -155 -43 -157 -38 -322 1 -49
-1 -88 -4 -88 -16 0 -18 -34 -3 -51 9 -10 13 -23 9 -29 -4 -6 -2 -17 5 -25 12
-15 -2 -55 -20 -55 -12 0 -12 -11 -1 -29 8 -12 12 -13 25 -1 19 15 19 16 38
-35 17 -44 54 -60 70 -31 5 9 22 16 41 16 35 0 70 36 48 49 -14 9 -31 100 -20
107 5 3 9 0 9 -7 0 -10 3 -10 12 -1 19 19 28 14 28 -13 0 -14 8 -29 20 -35 14
-7 19 -17 15 -29 -3 -10 4 -26 15 -39 12 -12 18 -27 15 -32 -8 -12 5 -13 24
-1 10 6 24 5 41 -4 24 -12 26 -12 28 10 1 14 -9 33 -23 47 -25 23 -32 52 -16
62 14 9 5 71 -11 74 -10 2 -15 14 -14 32 2 59 21 34 56 -75 13 -38 29 -77 37
-86 7 -9 10 -18 7 -22 -3 -3 2 -21 13 -39 10 -18 18 -34 19 -36 0 -1 15 3 32
9 26 9 32 16 32 39 0 32 -16 42 -43 28 -9 -5 -22 -6 -27 -3 -16 10 -12 42 6
49 27 10 64 7 64 -6 0 -9 3 -10 8 -2 4 6 20 15 36 21 29 9 34 16 96 145 11 24
14 38 7 41 -8 2 -7 16 1 48 6 24 14 61 17 81 6 36 9 38 68 57 69 21 77 20 78
-12 0 -20 1 -20 8 -3 6 17 9 16 19 -10 22 -57 41 -150 44 -223 3 -81 -10 -103
-32 -51 -14 35 -25 38 -40 11 -15 -29 -12 -48 4 -25 19 25 25 17 35 -45 11
-72 -5 -131 -36 -131 -13 0 -23 5 -23 10 0 6 5 10 10 10 6 0 10 5 10 11 0 5
-4 8 -9 4 -6 -3 -8 18 -5 52 l4 58 -13 -42 c-6 -23 -16 -45 -20 -49 -4 -5 -5
-1 -2 8 4 9 2 19 -4 23 -7 4 -11 -4 -11 -19 0 -14 -4 -26 -10 -26 -5 0 -10 5
-10 10 0 6 -4 10 -9 10 -5 0 -8 -8 -6 -17 13 -62 17 -74 28 -72 30 4 37 -3 37
-35 0 -26 -5 -36 -20 -41 -11 -4 -18 -11 -15 -16 4 -5 -1 -12 -11 -16 -15 -6
-14 -7 5 -15 14 -5 19 -12 15 -20 -5 -8 -2 -9 9 -5 18 7 24 -8 7 -18 -17 -10
-11 -34 11 -46 27 -14 48 3 30 25 -18 21 2 54 32 54 20 0 23 -5 21 -27 -2 -14
-1 -18 2 -8 3 9 10 17 16 17 7 0 9 -40 6 -119 -4 -114 -6 -122 -36 -171 -18
-29 -27 -49 -20 -46 7 3 21 9 31 12 9 4 17 13 17 21 0 8 11 28 25 45 14 16 25
35 25 42 0 7 14 31 31 52 17 22 41 60 54 86 21 44 22 47 4 37 -10 -5 -19 -16
-19 -23 0 -7 -15 -33 -32 -57 l-33 -44 -6 60 c-11 98 -10 207 1 200 6 -3 10
-1 10 5 0 14 29 44 56 58 11 6 54 9 95 8 41 -2 67 -1 59 2 -44 15 -56 76 -17
92 21 8 21 9 -6 9 -24 1 -26 3 -15 20 9 15 8 24 -6 46 -25 38 -43 41 -75 11
-15 -14 -30 -26 -33 -26 -3 0 -9 27 -12 61 -4 33 -10 67 -13 75 -7 20 -23 18
-24 -3 0 -14 -2 -14 -9 3 -13 32 -30 39 -30 12 -1 -21 -1 -22 -11 -5 -6 10 -9
35 -7 55 3 21 1 44 -3 52 -35 69 -59 120 -59 125 0 3 7 5 17 5 9 0 39 6 67 14
28 8 73 19 101 26 67 15 72 29 22 54 -23 12 -43 18 -45 14 -9 -19 -21 -4 -27
32 -6 34 -9 39 -21 29 -10 -8 -14 -8 -14 0 0 25 -23 8 -37 -28 -8 -22 -26 -44
-39 -50 -13 -6 -24 -15 -24 -21 0 -6 -5 -8 -11 -5 -7 5 -2 15 12 28 24 23 24
23 -33 41 -24 7 -23 60 2 106 34 63 41 84 36 107 -5 17 2 28 26 46 61 45 76
50 88 27 8 -14 8 -26 0 -40 -8 -15 -7 -27 4 -48 8 -15 17 -35 20 -44 5 -18 63
-38 112 -38 25 0 30 4 30 23 -1 17 4 21 22 20 13 -2 22 3 22 11 0 32 32 25 77
-17 29 -26 48 -37 50 -29 8 21 29 13 62 -23 17 -19 49 -44 70 -55 22 -11 42
-28 45 -38 3 -10 25 -36 48 -58 31 -29 36 -32 20 -10 -24 31 -28 52 -12 58 7
2 1 21 -12 47 -22 40 -29 46 -84 61 -78 22 -114 42 -144 78 -14 16 -44 41 -66
55 -23 14 -44 30 -45 34 -2 5 -24 23 -48 41 -42 30 -50 32 -127 32 -46 0 -86
5 -89 10 -4 6 -11 8 -16 4 -6 -4 -6 -11 2 -20 9 -11 7 -14 -10 -14 -11 0 -21
6 -21 14 0 19 -68 30 -103 17 -31 -12 -37 -26 -7 -18 10 3 24 -1 30 -8 9 -11
6 -13 -17 -11 -15 2 -34 4 -41 5 -7 0 -10 6 -7 11 4 6 -5 10 -21 10 -23 0 -26
3 -21 26 4 21 0 26 -25 31 -20 4 -38 19 -56 47 -24 37 -26 50 -25 136 1 69 -1
84 -7 55 l-7 -40 -2 40 -3 40 -10 -35 c-10 -34 -10 -34 -22 -12 -7 12 -15 20
-18 17 -3 -3 -11 8 -18 25 -18 45 -1 80 40 80 31 0 35 7 30 59 -2 26 -56 103
-98 139 -38 33 -114 82 -126 82 -6 -1 5 -10 26 -20z m192 -647 c-9 -37 -24
-53 -24 -26 0 28 10 53 21 53 5 0 6 -12 3 -27z m76 -29 c0 -16 -16 -19 -25 -4
-8 13 4 32 16 25 5 -4 9 -13 9 -21z m-110 -48 c0 -8 -7 -19 -15 -26 -12 -10
-15 -10 -15 3 0 25 11 47 21 41 5 -3 9 -11 9 -18z m563 -17 c26 -17 47 -33 47
-36 0 -2 -4 -1 -10 2 -5 3 -10 1 -10 -4 0 -6 -5 -11 -11 -11 -5 0 -7 5 -3 11
5 9 -2 10 -22 6 -16 -3 -23 -4 -16 -1 18 8 -5 35 -24 27 -8 -3 -14 0 -14 7 0
8 -9 10 -25 6 -25 -6 -36 8 -12 17 28 12 56 5 100 -24z m-601 -71 c-8 -8 -9
-4 -5 13 4 13 8 18 11 10 2 -7 -1 -18 -6 -23z m-252 -38 c0 -5 -5 -10 -11 -10
-5 0 -7 5 -4 10 3 6 8 10 11 10 2 0 4 -4 4 -10z m-40 -35 c0 -8 -4 -15 -9 -15
-13 0 -22 16 -14 24 11 11 23 6 23 -9z m46 -23 c15 -10 -6 -57 -26 -58 -8 -1
-22 -4 -30 -6 -8 -3 -12 -3 -7 -1 12 8 8 23 -7 23 -23 0 -7 38 18 43 35 7 41
7 52 -1z m134 -21 c0 -11 -5 -23 -11 -27 -15 -9 -33 12 -26 30 9 23 37 20 37
-3z m-286 -47 c11 -29 6 -34 -19 -18 -14 9 -25 20 -25 25 0 16 38 10 44 -7z
m54 -26 c-2 -7 8 -14 22 -16 14 -2 31 -9 38 -14 15 -13 16 -32 0 -22 -8 5 -9
2 -5 -10 6 -14 4 -15 -16 -5 -36 19 -57 41 -57 61 0 10 5 18 10 18 6 0 9 -6 8
-12z m137 -78 c-5 -8 -11 -8 -17 -2 -6 6 -7 16 -3 22 5 8 11 8 17 2 6 -6 7
-16 3 -22z m613 -16 c-1 -20 -7 -38 -15 -41 -20 -8 -30 6 -13 17 10 7 11 10 3
10 -7 0 -13 5 -13 10 0 6 7 10 15 10 9 0 12 6 9 15 -4 8 -1 15 5 15 6 0 10
-16 9 -36z m-633 -4 c3 -6 -1 -13 -10 -16 -19 -8 -30 0 -20 15 8 14 22 14 30
1z m-30 -89 c3 -5 1 -12 -5 -16 -5 -3 -10 1 -10 9 0 18 6 21 15 7z m84 -18 c6
-10 11 -14 11 -9 0 5 9 1 20 -9 24 -22 27 -50 4 -41 -9 3 -18 6 -20 6 -2 0 -4
6 -4 14 0 9 -7 12 -19 9 -22 -6 -34 9 -25 31 8 21 21 20 33 -1z m86 -34 c-5
-15 -2 -22 13 -25 14 -4 18 -12 14 -29 -3 -21 -7 -22 -23 -12 -25 15 -26 87
-2 87 3 0 1 -9 -2 -21z m-85 -120 c0 -5 -7 -9 -15 -9 -15 0 -20 12 -9 23 8 8
24 -1 24 -14z m590 -180 c0 -5 -4 -9 -10 -9 -5 0 -10 7 -10 16 0 8 5 12 10 9
6 -3 10 -10 10 -16z m176 -10 c18 -20 18 -21 -1 -35 -23 -17 -39 -13 -43 11
-3 11 0 15 8 10 9 -5 10 -1 5 14 -8 27 6 27 31 0z m-176 -30 c0 -11 -4 -17
-10 -14 -5 3 -10 13 -10 21 0 8 5 14 10 14 6 0 10 -9 10 -21z m-729 -32 c-1
-12 -15 -9 -19 4 -3 6 1 10 8 8 6 -3 11 -8 11 -12z m684 -77 c3 -5 -1 -10 -9
-10 -8 0 -18 5 -21 10 -3 6 1 10 9 10 8 0 18 -4 21 -10z"/>
<path d="M5944 6135 c-4 -8 -14 -15 -23 -15 -14 -1 -13 -3 3 -15 19 -15 19
-15 -3 -15 -12 0 -31 5 -41 10 -16 9 -18 8 -13 -6 5 -15 3 -15 -23 -1 -21 10
-36 12 -54 5 -14 -5 -33 -7 -43 -4 -13 3 -17 0 -13 -11 3 -8 6 -18 6 -23 0 -5
16 -18 35 -30 33 -21 37 -21 54 -6 42 38 87 7 90 -61 0 -32 -5 -46 -24 -65
-28 -26 -31 -38 -12 -38 14 0 14 -8 2 -77 -4 -24 -12 -43 -17 -43 -5 0 -4 -9
2 -20 6 -11 17 -20 24 -20 9 0 12 -8 9 -24 -5 -25 -9 -23 86 -42 16 -3 32 0
36 5 12 20 35 11 74 -26 39 -38 52 -68 38 -89 -4 -7 1 -14 13 -17 11 -3 18 -1
14 4 -3 5 0 9 5 9 6 0 11 8 11 18 1 24 37 65 50 57 16 -10 60 34 60 59 1 36
26 70 51 71 14 0 25 7 27 18 5 27 -42 22 -72 -8 -14 -14 -32 -25 -41 -25 -9 0
-14 -4 -11 -8 8 -13 -79 -39 -103 -31 -29 11 -31 69 -1 69 29 0 25 34 -5 50
-14 7 -25 18 -25 24 0 6 -4 5 -9 -3 -7 -10 -13 -11 -30 -2 -12 7 -26 9 -32 6
-5 -4 -17 -1 -25 6 -13 10 -12 14 3 31 16 18 16 19 -4 24 -23 6 -51 50 -39 61
18 19 75 11 101 -13 36 -33 68 -25 58 14 -16 62 -11 74 45 101 53 26 66 40 35
40 -51 -1 -150 23 -194 45 -56 30 -67 32 -75 11z"/>
<path d="M6276 6059 c-39 -31 -26 -33 25 -4 32 18 38 25 23 25 -12 0 -33 -10
-48 -21z"/>
<path d="M6340 5990 c0 -5 5 -10 10 -10 6 0 10 5 10 10 0 6 -4 10 -10 10 -5 0
-10 -4 -10 -10z"/>
<path d="M6303 5879 c-39 -11 -50 -27 -26 -36 10 -4 23 -12 30 -17 7 -6 19
-17 27 -23 8 -7 27 -10 43 -7 24 5 28 10 28 40 0 51 -30 64 -102 43z"/>
<path d="M6912 5855 c0 -16 2 -22 5 -12 2 9 2 23 0 30 -3 6 -5 -1 -5 -18z"/>
<path d="M6431 5787 c-2 -31 18 -57 44 -57 18 0 25 5 25 20 0 23 -4 24 -30 10
-15 -8 -20 -5 -28 18 -7 18 -11 21 -11 9z"/>
<path d="M6265 5749 c-11 -17 0 -20 21 -4 17 13 17 14 2 15 -9 0 -20 -5 -23
-11z"/>
<path d="M5110 5720 c-41 -33 -60 -53 -90 -97 l-29 -43 55 32 c42 23 72 32
124 36 99 7 114 -3 54 -33 -54 -27 -69 -31 -58 -14 9 16 -36 -9 -63 -34 -30
-27 -29 -35 2 -29 14 2 25 8 25 12 0 16 76 33 147 32 70 -1 146 -19 138 -32
-2 -4 7 -13 20 -20 14 -7 25 -16 25 -20 0 -8 57 -6 65 2 3 3 -9 18 -27 33 -18
15 -31 30 -28 33 3 4 -24 30 -60 59 l-65 53 -80 -1 c-76 -2 -80 -1 -79 20 0
11 -5 21 -12 21 -7 0 -18 2 -26 5 -7 2 -24 -4 -38 -15z"/>
<path d="M6442 5685 c0 -16 2 -22 5 -12 2 9 2 23 0 30 -3 6 -5 -1 -5 -18z"/>
<path d="M5430 5690 c8 -5 20 -10 25 -10 6 0 3 5 -5 10 -8 5 -19 10 -25 10 -5
0 -3 -5 5 -10z"/>
<path d="M5555 5666 c4 -37 27 -66 41 -52 8 9 4 21 -16 45 -27 31 -27 31 -25
7z"/>
<path d="M7075 5670 c-10 -17 12 -37 25 -24 8 8 6 15 -4 23 -10 9 -16 9 -21 1z"/>
<path d="M6826 5581 c-4 -7 -5 -15 -2 -18 9 -9 19 4 14 18 -4 11 -6 11 -12 0z"/>
<path d="M5263 5563 c9 -2 23 -2 30 0 6 3 -1 5 -18 5 -16 0 -22 -2 -12 -5z"/>
<path d="M5323 5553 c9 -2 25 -2 35 0 9 3 1 5 -18 5 -19 0 -27 -2 -17 -5z"/>
<path d="M5903 5553 c9 -2 25 -2 35 0 9 3 1 5 -18 5 -19 0 -27 -2 -17 -5z"/>
<path d="M5400 5527 c0 -2 15 -14 33 -27 20 -15 27 -17 18 -6 -13 16 -51 41
-51 33z"/>
<path d="M7208 5503 c7 -3 16 -2 19 1 4 3 -2 6 -13 5 -11 0 -14 -3 -6 -6z"/>
<path d="M5359 5469 l-20 -20 33 -26 c18 -15 52 -47 76 -71 36 -38 50 -34 19
6 -16 20 17 15 46 -8 27 -21 57 -104 57 -156 0 -25 1 -26 13 -10 13 17 14 17
28 0 11 -14 11 -16 0 -9 -11 6 -13 2 -9 -19 3 -14 1 -26 -4 -26 -5 0 -6 -6 -2
-12 5 -9 4 -10 -4 -3 -5 6 -12 19 -15 30 -3 13 -5 10 -6 -11 -2 -61 -14 -94
-48 -134 -19 -22 -43 -40 -54 -40 -10 0 -19 -5 -19 -10 0 -20 -123 -70 -171
-70 -106 0 -184 26 -257 88 -26 22 -27 22 -8 37 11 8 16 16 10 16 -5 1 -13 2
-19 4 -5 1 -16 3 -22 3 -7 1 -13 11 -13 22 0 11 -9 29 -20 40 -12 12 -26 33
-32 48 -6 15 -12 22 -15 15 -9 -24 -41 -8 -56 27 -3 8 -5 -5 -4 -30 2 -40 4
-45 27 -45 19 0 26 -6 28 -25 3 -21 2 -22 -12 -11 -10 8 -16 9 -16 3 0 -6 8
-16 18 -21 11 -7 13 -13 6 -18 -32 -22 -14 -93 20 -80 12 5 14 -1 11 -23 -3
-27 -2 -29 16 -19 22 12 39 4 39 -17 0 -9 6 -14 12 -12 21 7 41 -21 35 -50 -5
-24 -4 -25 8 -8 13 17 15 17 48 -8 32 -24 39 -26 109 -20 69 6 76 5 81 -12 10
-33 12 -79 4 -92 -11 -17 27 -16 42 2 12 15 51 28 49 17 -3 -23 6 -31 32 -31
17 0 30 5 30 10 0 6 -5 10 -11 10 -6 0 -9 9 -6 20 3 13 -3 24 -19 35 -16 10
-24 25 -24 44 0 24 10 35 69 72 38 24 76 55 85 69 14 23 15 23 16 4 0 -11 -6
-26 -12 -32 -18 -18 -19 -70 -2 -76 9 -3 13 -18 12 -38 -1 -17 2 -33 7 -35 6
-2 25 -12 43 -23 24 -15 32 -27 32 -49 0 -18 -7 -34 -17 -40 -16 -9 -13 -15
29 -56 51 -49 76 -56 96 -25 15 24 42 16 42 -14 0 -17 2 -18 10 -6 11 17 11
16 15 -20 1 -13 -4 -30 -13 -36 -10 -7 -11 -13 -4 -18 6 -3 25 7 42 23 27 24
29 29 15 35 -12 4 -16 14 -12 32 3 17 -1 29 -13 36 -10 7 -15 19 -12 30 2 11
-1 18 -9 18 -22 0 -20 62 2 78 11 7 19 16 19 20 0 16 -18 34 -36 36 -29 4 -28
31 1 44 28 13 33 43 10 62 -18 15 -55 4 -56 -18 0 -14 -2 -13 -8 3 -17 42 -22
77 -11 70 13 -8 4 57 -12 87 -4 10 -9 49 -10 87 -2 61 -4 68 -19 60 -31 -16
-104 60 -80 84 8 8 11 4 11 -14 0 -17 11 -33 33 -49 17 -12 26 -17 20 -9 -18
19 -16 29 7 29 13 0 18 5 14 15 -4 8 -1 15 5 15 7 0 7 8 2 23 -5 12 -14 21
-19 20 -12 -3 -57 55 -49 63 2 3 12 -3 21 -12 22 -21 29 -13 17 19 -6 15 -29
38 -51 52 -37 23 -42 24 -56 10 -17 -16 -28 -20 -20 -7 6 10 -38 33 -117 62
-23 8 -31 6 -48 -11z m91 -38 c0 -6 -4 -13 -10 -16 -5 -3 -10 1 -10 9 0 9 5
16 10 16 6 0 10 -4 10 -9z m125 -29 c-3 -3 5 -12 17 -19 13 -7 19 -12 13 -12
-17 -1 -38 17 -41 33 -1 9 2 13 8 10 5 -3 7 -9 3 -12z m83 -254 c7 -7 12 -27
12 -46 0 -18 5 -42 11 -53 5 -11 12 -48 13 -82 2 -34 14 -102 26 -152 12 -49
23 -97 23 -105 0 -8 6 -25 13 -39 9 -17 10 -30 3 -43 -12 -23 -53 -18 -57 8
-2 10 -7 28 -11 39 -11 26 -29 108 -37 165 -3 25 -20 73 -37 107 l-31 63 24
25 c13 14 20 25 15 25 -5 0 -4 5 3 12 7 7 8 16 3 22 -10 12 -3 66 8 66 4 0 12
-5 19 -12z"/>
<path d="M5640 5125 c-7 -9 -8 -15 -2 -15 5 0 12 7 16 15 3 8 4 15 2 15 -2 0
-9 -7 -16 -15z"/>
<path d="M7690 5464 c-11 -12 -11 -18 1 -30 20 -19 53 3 43 29 -8 21 -27 22
-44 1z"/>
<path d="M6242 5440 c11 -16 9 -22 -7 -34 -19 -14 -17 -15 26 -16 33 0 49 5
53 15 3 8 15 15 26 15 12 0 31 10 43 21 l22 22 -33 -19 c-31 -18 -34 -18 -81
-1 -61 21 -64 21 -49 -3z"/>
<path d="M5307 5418 c-26 -14 -20 -28 11 -28 15 0 44 -9 65 -20 46 -25 53 -25
30 -1 -32 34 -88 60 -106 49z"/>
<path d="M6040 5413 c0 -5 5 -14 12 -21 9 -9 6 -12 -15 -12 -15 0 -27 -5 -27
-11 0 -7 9 -9 23 -5 69 19 96 18 132 -4 20 -12 39 -20 42 -16 3 3 -6 10 -20
15 -14 5 -27 15 -29 21 -2 6 -19 15 -38 19 -19 4 -45 11 -57 15 -13 4 -23 3
-23 -1z"/>
<path d="M6428 5353 c7 -3 16 -2 19 1 4 3 -2 6 -13 5 -11 0 -14 -3 -6 -6z"/>
<path d="M7880 5330 c0 -5 5 -10 11 -10 5 0 7 5 4 10 -3 6 -8 10 -11 10 -2 0
-4 -4 -4 -10z"/>
<path d="M7563 5255 c-18 -20 -16 -24 7 -18 11 3 20 12 20 19 0 18 -11 17 -27
-1z"/>
<path d="M5700 5225 c0 -8 2 -15 4 -15 2 0 6 7 10 15 3 8 1 15 -4 15 -6 0 -10
-7 -10 -15z"/>
<path d="M4820 5221 c0 -6 5 -13 10 -16 6 -3 10 1 10 9 0 9 -4 16 -10 16 -5 0
-10 -4 -10 -9z"/>
<path d="M5406 5155 c-3 -9 -3 -21 0 -26 3 -6 0 -17 -7 -25 -13 -16 -9 -24 14
-28 8 -1 22 -8 31 -15 22 -18 46 2 46 39 0 23 -5 30 -30 35 -16 4 -34 13 -38
22 -8 13 -10 13 -16 -2z"/>
<path d="M5131 5019 c12 -22 25 -24 32 -5 4 9 -3 16 -18 18 -21 4 -23 3 -14
-13z"/>
<path d="M5051 5016 c12 -10 60 -16 54 -6 -3 5 -18 10 -32 10 -15 0 -24 -2
-22 -4z"/>
<path d="M5210 4970 c19 -13 30 -13 30 0 0 6 -10 10 -22 10 -19 0 -20 -2 -8
-10z"/>
<path d="M5910 4860 c0 -5 5 -10 10 -10 6 0 10 5 10 10 0 6 -4 10 -10 10 -5 0
-10 -4 -10 -10z"/>
<path d="M7047 4814 c-12 -12 -8 -24 7 -24 8 0 18 5 22 12 4 6 3 8 -4 4 -5 -3
-12 -1 -14 5 -2 5 -7 7 -11 3z"/>
<path d="M6093 4794 c-3 -8 -1 -20 6 -27 14 -14 47 15 37 32 -10 16 -36 13
-43 -5z"/>
<path d="M7321 4794 c0 -11 3 -14 6 -6 3 7 2 16 -1 19 -3 4 -6 -2 -5 -13z"/>
<path d="M7466 4793 c-11 -11 -6 -23 9 -23 8 0 15 4 15 9 0 13 -16 22 -24 14z"/>
<path d="M5440 4690 c0 -5 5 -10 10 -10 6 0 10 5 10 10 0 6 -4 10 -10 10 -5 0
-10 -4 -10 -10z"/>
<path d="M5920 4680 c0 -5 5 -10 10 -10 6 0 10 5 10 10 0 6 -4 10 -10 10 -5 0
-10 -4 -10 -10z"/>
<path d="M7113 4675 c-3 -9 -3 -18 -1 -21 3 -3 8 4 11 16 6 23 -1 27 -10 5z"/>
<path d="M5501 4664 c0 -11 3 -14 6 -6 3 7 2 16 -1 19 -3 4 -6 -2 -5 -13z"/>
<path d="M7117 4627 c-4 -10 -7 -26 -7 -35 1 -15 2 -15 11 1 6 10 9 25 7 35
-3 16 -4 15 -11 -1z"/>
<path d="M7520 4556 c0 -2 8 -10 18 -17 15 -13 16 -12 3 4 -13 16 -21 21 -21
13z"/>
<path d="M5556 4473 c-11 -11 -6 -23 9 -23 8 0 15 4 15 9 0 13 -16 22 -24 14z"/>
<path d="M6640 4440 c0 -5 5 -10 11 -10 5 0 7 5 4 10 -3 6 -8 10 -11 10 -2 0
-4 -4 -4 -10z"/>
<path d="M6726 4433 c-6 -14 -5 -15 5 -6 7 7 10 15 7 18 -3 3 -9 -2 -12 -12z"/>
<path d="M7695 4440 c-7 -12 2 -30 16 -30 12 0 12 27 0 35 -5 3 -12 1 -16 -5z"/>
<path d="M8117 4414 c-9 -10 2 -24 19 -24 8 0 14 7 14 15 0 15 -21 21 -33 9z"/>
<path d="M6402 4393 c2 -10 10 -18 18 -18 8 0 16 8 18 18 2 12 -3 17 -18 17
-15 0 -20 -5 -18 -17z"/>
<path d="M7452 4365 c0 -16 2 -22 5 -12 2 9 2 23 0 30 -3 6 -5 -1 -5 -18z"/>
<path d="M7429 4293 c-13 -16 -12 -17 4 -4 16 13 21 21 13 21 -2 0 -10 -8 -17
-17z"/>
<path d="M7173 4205 c15 -8 27 -22 27 -30 0 -8 5 -15 10 -15 17 0 11 37 -7 43
-10 2 -27 8 -38 12 -11 3 -8 -1 8 -10z"/>
<path d="M6005 4190 c3 -5 8 -10 11 -10 2 0 4 5 4 10 0 6 -5 10 -11 10 -5 0
-7 -4 -4 -10z"/>
<path d="M7710 4181 c-76 -25 -118 -61 -149 -131 -27 -60 -26 -123 3 -185 44
-96 121 -140 231 -133 75 5 131 37 172 100 38 56 45 165 15 224 -24 46 -65 90
-106 111 -34 18 -130 26 -166 14z m50 -221 c0 -56 -2 -60 -22 -60 -22 0 -23 3
-20 60 3 51 7 60 23 60 17 0 19 -8 19 -60z m60 0 c0 -53 -2 -60 -20 -60 -18 0
-20 7 -20 60 0 53 2 60 20 60 18 0 20 -7 20 -60z"/>
<path d="M5795 4140 c-4 -6 -3 -16 3 -22 6 -6 12 -6 17 2 4 6 3 16 -3 22 -6 6
-12 6 -17 -2z"/>
<path d="M6148 4143 c7 -3 16 -2 19 1 4 3 -2 6 -13 5 -11 0 -14 -3 -6 -6z"/>
<path d="M7040 4050 c0 -5 5 -10 11 -10 5 0 7 5 4 10 -3 6 -8 10 -11 10 -2 0
-4 -4 -4 -10z"/>
<path d="M5957 3577 c-18 -13 -21 -28 -19 -99 2 -60 22 -63 22 -4 0 26 5 47
13 50 10 5 10 7 0 12 -7 3 -13 12 -13 19 0 7 6 15 13 18 6 2 9 7 6 11 -3 3
-13 0 -22 -7z"/>
<path d="M6685 3576 c-16 -11 -19 -25 -17 -77 3 -74 12 -93 12 -26 0 37 4 47
17 47 15 0 15 2 -1 19 -17 18 -17 20 1 29 10 6 15 13 12 16 -3 3 -14 0 -24 -8z"/>
<path d="M5160 3505 c0 -43 4 -75 10 -75 6 0 10 14 10 30 0 25 4 30 25 30 22
0 45 24 45 49 0 19 -32 41 -61 41 l-29 0 0 -75z m70 31 c0 -22 -16 -36 -41
-36 -5 0 -9 14 -9 30 0 25 4 30 25 30 20 0 25 -5 25 -24z"/>
<path d="M5820 3573 c-45 -16 -56 -100 -18 -127 73 -52 147 46 83 109 -24 25
-36 28 -65 18z m58 -25 c13 -13 16 -67 4 -84 -25 -37 -92 -14 -92 32 0 41 18
64 48 64 16 0 33 -5 40 -12z"/>
<path d="M6040 3570 c0 -5 9 -10 20 -10 18 0 20 -7 20 -65 0 -37 4 -65 10 -65
6 0 10 28 10 65 0 58 2 65 20 65 11 0 20 5 20 10 0 6 -22 10 -50 10 -27 0 -50
-4 -50 -10z"/>
<path d="M6160 3505 c0 -81 9 -93 19 -28 5 29 11 39 29 41 20 3 22 -1 22 -44
0 -35 3 -45 11 -37 15 15 2 90 -18 97 -9 4 -22 1 -29 -5 -8 -6 -14 -10 -15 -8
0 2 -2 14 -3 26 -6 55 -16 29 -16 -42z"/>
<path d="M6440 3505 c0 -43 4 -75 10 -75 6 0 10 16 10 35 0 33 2 35 20 25 12
-6 26 -22 32 -36 6 -13 15 -24 21 -24 5 0 0 16 -12 36 -19 31 -19 37 -6 50 8
9 15 19 15 24 0 18 -33 40 -61 40 l-29 0 0 -75z m65 30 c0 -13 -8 -21 -22 -23
-19 -3 -23 1 -23 23 0 22 4 26 23 23 14 -2 22 -10 22 -23z"/>
<path d="M5305 3530 c-4 -6 -11 -8 -16 -5 -5 4 -8 -16 -7 -47 l1 -53 6 44 c4
31 12 46 25 51 13 4 16 9 9 13 -7 4 -14 3 -18 -3z"/>
<path d="M5360 3530 c-12 -8 -9 -10 13 -10 17 0 27 -5 27 -14 0 -9 -12 -16
-27 -18 -22 -2 -28 -8 -28 -28 0 -22 5 -25 38 -27 37 -1 37 -1 37 37 0 22 -7
45 -16 54 -18 18 -24 19 -44 6z m40 -65 c0 -9 -7 -18 -16 -22 -18 -7 -39 11
-30 26 11 17 46 13 46 -4z"/>
<path d="M5506 3509 c-7 -19 -16 -41 -19 -49 -5 -17 -4 -18 -27 44 -6 16 -13
26 -16 23 -3 -2 2 -22 10 -42 21 -49 20 -75 -1 -91 -10 -7 -13 -14 -7 -14 6 0
16 6 22 13 14 18 62 140 57 146 -3 2 -11 -11 -19 -30z"/>
<path d="M5560 3520 c-24 -24 -26 -53 -4 -74 18 -19 50 -21 60 -4 4 7 3 8 -5
4 -16 -10 -51 3 -51 20 0 9 11 14 35 14 39 0 46 17 19 44 -20 21 -30 20 -54
-4z m50 -14 c0 -9 -10 -13 -25 -12 -25 1 -31 7 -18 19 12 12 43 7 43 -7z"/>
<path d="M5657 3533 c-11 -10 -8 -103 3 -103 6 0 10 25 10 55 0 56 -1 60 -13
48z"/>
<path d="M5685 3530 c-3 -5 -1 -10 4 -10 6 0 11 5 11 10 0 6 -2 10 -4 10 -3 0
-8 -4 -11 -10z"/>
<path d="M6292 3524 c-26 -18 -29 -56 -6 -78 17 -18 50 -21 58 -7 4 5 -2 7
-12 4 -11 -2 -27 4 -37 14 -18 17 -17 18 23 21 45 3 54 19 26 46 -19 20 -24
20 -52 0z m48 -17 c0 -7 -11 -13 -25 -13 -25 0 -31 7 -18 19 11 12 43 7 43 -6z"/>
<path d="M6572 3524 c-34 -23 -27 -75 11 -88 20 -7 30 -6 40 3 10 11 8 12 -11
6 -23 -7 -52 8 -52 26 0 5 15 9 34 9 42 0 50 10 30 38 -18 26 -23 27 -52 6z
m48 -19 c0 -9 -9 -15 -25 -15 -16 0 -25 6 -25 15 0 9 9 15 25 15 16 0 25 -6
25 -15z"/>
<path d="M6720 3505 c0 -45 15 -75 38 -75 16 1 16 1 0 11 -12 7 -18 22 -18 49
0 21 -4 42 -10 45 -6 4 -10 -8 -10 -30z"/>
<path d="M6862 3532 c-7 -2 -18 -15 -23 -29 -14 -37 13 -77 47 -69 19 5 24 3
24 -13 0 -20 -32 -37 -50 -26 -5 3 -10 1 -10 -4 0 -6 11 -11 24 -11 36 0 56
35 56 100 0 53 -1 55 -28 56 -15 0 -33 -1 -40 -4z m46 -48 c2 -22 -2 -33 -14
-38 -22 -8 -44 11 -44 39 0 28 9 37 35 33 14 -2 21 -12 23 -34z"/>
<path d="M6982 3533 c-25 -10 -34 -53 -17 -79 16 -24 49 -32 60 -14 3 6 -1 7
-10 4 -16 -6 -45 11 -45 27 0 5 16 9 35 9 28 0 35 4 35 20 0 16 -29 43 -42 39
-2 0 -9 -3 -16 -6z m43 -23 c8 -13 -20 -24 -41 -16 -20 8 -9 26 16 26 10 0 22
-5 25 -10z"/>
<path d="M7080 3520 c-24 -24 -26 -53 -4 -74 18 -19 50 -21 60 -4 4 7 3 8 -5
4 -16 -10 -51 3 -51 20 0 9 11 14 35 14 39 0 46 17 19 44 -20 21 -30 20 -54
-4z m50 -9 c0 -6 -4 -12 -9 -15 -13 -8 -42 4 -35 15 7 12 44 12 44 0z"/>
<path d="M6790 3490 c0 -22 0 -43 -1 -47 0 -4 4 -9 10 -11 7 -2 11 15 11 47 0
28 -4 51 -10 51 -5 0 -10 -18 -10 -40z"/>
<path d="M5721 3143 c1 -32 4 -45 6 -30 5 34 33 34 48 -1 5 -12 14 -22 19 -22
4 0 1 12 -9 26 -13 20 -14 28 -5 40 14 16 7 44 -11 44 -8 0 -8 -4 1 -15 15
-18 5 -35 -22 -35 -16 0 -19 5 -16 25 3 14 1 25 -3 25 -5 0 -8 -26 -8 -57z"/>
<path d="M6558 3177 c-7 -22 7 -80 20 -83 7 -1 8 0 2 3 -12 6 -13 60 -1 65 5
2 3 8 -4 15 -10 9 -14 9 -17 0z"/>
<path d="M6066 3133 c-11 -35 -12 -43 -2 -30 17 21 66 23 66 2 0 -8 4 -15 9
-15 5 0 4 14 -2 30 -7 17 -13 26 -15 20 -2 -5 -13 -10 -24 -10 -17 0 -19 4
-14 25 11 43 -1 27 -18 -22z"/>
<path d="M5823 3130 c0 -25 2 -35 4 -22 2 12 2 32 0 45 -2 12 -4 2 -4 -23z"/>
<path d="M5860 3159 c-13 -8 -12 -12 8 -26 27 -19 28 -30 5 -36 -17 -4 -17 -5
0 -6 24 -1 34 29 14 41 -22 12 -22 25 1 31 12 3 13 5 2 6 -8 0 -22 -4 -30 -10z"/>
<path d="M5932 3158 c-27 -27 -2 -75 35 -65 15 4 14 5 -3 6 -12 0 -24 8 -28
16 -4 11 2 15 25 15 24 0 30 4 27 18 -4 21 -39 27 -56 10z m43 -8 c4 -6 -5
-10 -20 -10 -15 0 -24 4 -20 10 3 6 12 10 20 10 8 0 17 -4 20 -10z"/>
<path d="M6172 3158 c-24 -24 -6 -69 28 -67 9 0 6 4 -7 9 -33 13 -28 49 7 63
13 5 13 6 0 6 -9 1 -21 -4 -28 -11z"/>
<path d="M6220 3120 c-4 -47 -8 -55 -30 -61 -20 -6 -21 -7 -5 -8 38 -1 46 13
43 70 l-4 54 -4 -55z"/>
<path d="M6293 3164 c20 -6 23 -24 5 -24 -9 0 -10 -2 -2 -8 7 -4 14 -16 17
-27 3 -11 5 -2 4 20 -2 32 -6 40 -22 42 -16 1 -16 1 -2 -3z"/>
<path d="M6353 3130 c0 -25 2 -35 4 -22 2 12 2 32 0 45 -2 12 -4 2 -4 -23z"/>
<path d="M6390 3131 c0 -23 2 -41 4 -41 8 0 12 71 4 76 -4 3 -8 -13 -8 -35z"/>
<path d="M6433 3159 c10 -6 17 -23 18 -42 1 -18 3 -24 6 -14 8 30 -6 67 -25
67 -16 -1 -16 -1 1 -11z"/>
<path d="M6487 3163 c-13 -13 -7 -31 13 -36 27 -7 25 -27 -2 -28 -19 -1 -20
-2 -4 -6 10 -3 23 0 30 7 8 9 5 16 -11 30 -28 22 -28 27 -5 33 14 4 14 5 1 6
-9 0 -19 -2 -22 -6z"/>
<path d="M6265 3120 c-9 -14 3 -30 23 -30 15 1 15 2 -1 11 -9 6 -15 14 -12 20
4 5 4 9 1 9 -3 0 -8 -4 -11 -10z"/>
<path d="M7128 2558 c28 -31 28 -65 0 -95 -12 -13 -17 -23 -11 -23 12 0 38 29
46 53 9 25 -8 64 -35 78 l-23 12 23 -25z"/>
<path d="M5512 2554 c-42 -29 -17 -104 35 -104 20 0 53 38 53 60 0 22 -33 60
-53 60 -7 0 -23 -7 -35 -16z"/>
<path d="M7803 2546 c-24 -21 -26 -27 -18 -52 6 -18 21 -33 39 -39 25 -8 31
-6 52 18 30 35 30 42 -1 72 -30 31 -37 31 -72 1z"/>
<path d="M4404 2546 c-9 -23 0 -69 14 -72 7 -1 8 0 2 3 -18 9 -12 71 8 76 16
4 16 5 -1 6 -10 0 -20 -5 -23 -13z"/>
<path d="M4488 2553 c-2 -5 -1 -26 3 -48 l6 -40 2 48 c1 44 -3 57 -11 40z"/>
<path d="M4578 2553 c7 -3 16 -2 19 1 4 3 -2 6 -13 5 -11 0 -14 -3 -6 -6z"/>
<path d="M4643 2553 c9 -2 23 -2 30 0 6 3 -1 5 -18 5 -16 0 -22 -2 -12 -5z"/>
<path d="M6560 2556 c0 -2 7 -7 16 -10 8 -3 12 -2 9 4 -6 10 -25 14 -25 6z"/>
<path d="M6628 2553 c7 -3 16 -2 19 1 4 3 -2 6 -13 5 -11 0 -14 -3 -6 -6z"/>
<path d="M6710 2556 c0 -2 9 -6 20 -9 11 -3 18 -1 14 4 -5 9 -34 13 -34 5z"/>
<path d="M6783 2553 c9 -2 23 -2 30 0 6 3 -1 5 -18 5 -16 0 -22 -2 -12 -5z"/>
<path d="M7066 2545 c-3 -8 -15 -15 -26 -15 -13 0 -20 -7 -20 -20 0 -11 6 -20
14 -20 7 0 19 -7 26 -15 22 -26 30 -16 30 35 0 48 -12 66 -24 35z"/>
<path d="M4442 2515 c0 -16 2 -22 5 -12 2 9 2 23 0 30 -3 6 -5 -1 -5 -18z"/>
<path d="M4586 2512 l-19 -27 24 22 c12 12 21 24 18 27 -2 2 -13 -8 -23 -22z"/>
<path d="M7111 2511 c-1 -27 2 -32 11 -23 8 8 8 17 0 34 -10 22 -11 21 -11
-11z"/>
<path d="M6620 2516 c0 -2 7 -7 16 -10 8 -3 12 -2 9 4 -6 10 -25 14 -25 6z"/>
<path d="M6570 2480 c-9 -6 -10 -10 -3 -10 6 0 15 5 18 10 8 12 4 12 -15 0z"/>
<path d="M4568 2473 c6 -2 18 -2 25 0 6 3 1 5 -13 5 -14 0 -19 -2 -12 -5z"/>
<path d="M6628 2473 c7 -3 16 -2 19 1 4 3 -2 6 -13 5 -11 0 -14 -3 -6 -6z"/>
<path d="M6713 2473 c9 -2 23 -2 30 0 6 3 -1 5 -18 5 -16 0 -22 -2 -12 -5z"/>
<path d="M5302 1988 c-43 -14 -107 -78 -127 -124 -21 -52 -19 -146 4 -193 60
-117 194 -162 310 -105 124 62 165 210 91 327 -44 70 -98 101 -179 104 -36 1
-81 -3 -99 -9z m58 -218 c0 -27 -4 -50 -10 -50 -5 0 -10 23 -10 50 0 28 5 50
10 50 6 0 10 -22 10 -50z m80 0 l0 -50 -35 22 c-19 13 -35 26 -35 30 0 5 59
47 68 48 1 0 2 -23 2 -50z"/>
<path d="M6824 1986 c-159 -69 -191 -285 -59 -394 149 -122 375 -15 375 178 0
94 -57 179 -142 214 -46 19 -132 20 -174 2z m81 -191 c16 -13 27 -26 25 -28
-3 -2 -20 -14 -37 -26 l-33 -22 0 50 c0 28 3 51 8 51 4 -1 20 -12 37 -25z m55
-25 c0 -27 -4 -50 -10 -50 -5 0 -10 23 -10 50 0 28 5 50 10 50 6 0 10 -22 10
-50z"/>
<path d="M5766 531 c-4 -5 3 -7 14 -4 23 6 26 13 6 13 -8 0 -17 -4 -20 -9z"/>
<path d="M5898 533 c7 -3 16 -2 19 1 4 3 -2 6 -13 5 -11 0 -14 -3 -6 -6z"/>
<path d="M5977 533 c6 -4 13 -24 16 -43 4 -34 4 -33 3 4 -1 26 -6 41 -16 43
-10 3 -11 2 -3 -4z"/>
<path d="M6030 536 c0 -2 7 -7 16 -10 8 -3 12 -2 9 4 -6 10 -25 14 -25 6z"/>
<path d="M6090 536 c0 -2 9 -6 20 -9 11 -3 18 -1 14 4 -5 9 -34 13 -34 5z"/>
<path d="M6191 495 l1 -50 8 40 c5 22 4 44 -1 50 -5 5 -9 -11 -8 -40z"/>
<path d="M6308 533 c6 -2 18 -2 25 0 6 3 1 5 -13 5 -14 0 -19 -2 -12 -5z"/>
<path d="M6390 531 c17 -5 27 -16 31 -36 6 -28 7 -28 8 -4 1 30 -16 49 -43 48
-18 -1 -17 -2 4 -8z"/>
<path d="M6458 533 c6 -2 18 -2 25 0 6 3 1 5 -13 5 -14 0 -19 -2 -12 -5z"/>
<path d="M6256 513 c-6 -14 -5 -15 5 -6 7 7 10 15 7 18 -3 3 -9 -2 -12 -12z"/>
<path d="M5954 491 c0 -21 7 -36 16 -38 10 -3 11 -2 3 4 -6 4 -13 22 -16 38
-4 27 -5 27 -3 -4z"/>
<path d="M6515 512 c4 -8 11 -26 15 -40 7 -22 8 -23 9 -6 1 11 -6 29 -15 40
-8 10 -12 13 -9 6z"/>
<path d="M6039 483 c-13 -16 -12 -17 4 -4 9 7 17 15 17 17 0 8 -8 3 -21 -13z"/>
<path d="M6300 491 c0 -5 9 -7 20 -4 11 3 20 7 20 9 0 2 -9 4 -20 4 -11 0 -20
-4 -20 -9z"/>
<path d="M6458 493 c6 -2 18 -2 25 0 6 3 1 5 -13 5 -14 0 -19 -2 -12 -5z"/>
<path d="M6100 475 c-7 -9 -11 -17 -9 -20 3 -2 10 5 17 15 14 24 10 26 -8 5z"/>
<path d="M6236 475 c-9 -26 -7 -32 5 -12 6 10 9 21 6 23 -2 3 -7 -2 -11 -11z"/>
</g>
</svg>
